Camelot S01E04 HDTV 720p ENG + NL Subs

Verenigde Staten / Canada / Engeland / Ierland ~ 50 minuten ~ geschreven door Michael Hirst & Chris Chibnall ~ met Jamie Campbell Bower, Tamsin Egerton en Joseph Fiennes

Merlin vertrekt voor een reis om een zwaard te vinden waardig voor een koning door een legendarische zwaardmaker te zoeken. Een conversatie met Guinevere veranderd Arthur en hij laat zijn kracht gelden door te sparren met Leontes.

Bestandsformaat: .MKV
Bestandsgrootte: 1,45 GB
Taal: Engels in DD5.1
Ondertitelingen: Engels en Nederlands ~ Nederlands custom door Regeer (in te stellen)
Categorie : Serie
Formaat : NVT
Bron : HDTV
Menu: Nee
Extra's: Nee
Genre : Drama ~ Fantasie
Weblink :  http://www.imdb.com/title/tt1672189/

~~~~~~~~~~~~~~~~~~~~~~
USA / Canada / UK / Ireland ~ 50 minutes ~ written by Michael Hirst & Chris Chibnall ~ with Jamie Campbell Bower, Tamsin Egerton and Joseph Fiennes

Merlin sets off on a journey to find a sword suitable for a king by seeking out a legendary sword maker. A conversation with Guinevere changes Arthur and he begins to assert his power by sparring with Leontes.

File Format: .MKV
File size: 1.45 GB
Language: English in DD5.1
Subtitles: English and Dutch ~ both custom (selectable)
Category : Series
Format : -
Source : HDTV
Menu: No
Extras: No
Genre : Drama ~ Fantasy
Weblink :  http://www.imdb.com/title/tt1672189/

Video and audio information:
~~~~~~~~~~~~~~~~~~~~~~
Video
ID                               : 1
Format                           : AVC
Format/Info                      : Advanced Video Codec
Format profile                   : High@L4.1
Format settings, CABAC           : Yes
Format settings, ReFrames        : 8 frames
Format settings, GOP             : M=3, N=4
Codec ID                         : V_MPEG4/ISO/AVC
Duration                         : 54mn 18s
Bit rate                         : 3 457 Kbps
Width                            : 1 280 pixels
Height                           : 720 pixels
Display aspect ratio             : 16:9
Frame rate                       : 23.976 fps
Color space                      : YUV
Chroma subsampling               : 4:2:0
Bit depth                        : 8 bits
Scan type                        : Progressive
Bits/(Pixel*Frame)               : 0.156
Stream size                      : 1.28 GiB (88%)
Writing library                  : x264 core 105 r1732 2b04482
Encoding settings                : cabac=1 / ref=8 / deblock=1:-2:-2 / analyse=0x3:0x113 / me=umh / subme=9 / psy=1 / psy_rd=1.00:0.00 / mixed_ref=1 / me_range=24 / chroma_me=1 / trellis=1 / 8x8dct=1 / cqm=0 / deadzone=21,11 / fast_pskip=0 / chroma_qp_offset=-2 / threads=6 / sliced_threads=0 / nr=0 / decimate=1 / interlaced=0 / constrained_intra=0 / bframes=5 / b_pyramid=2 / b_adapt=1 / b_bias=0 / direct=3 / weightb=1 / open_gop=0 / weightp=2 / keyint=250 / keyint_min=23 / scenecut=40 / intra_refresh=0 / rc_lookahead=40 / rc=2pass / mbtree=1 / bitrate=3457 / ratetol=1.0 / qcomp=0.60 / qpmin=10 / qpmax=51 / qpstep=4 / cplxblur=20.0 / qblur=0.5 / ip_ratio=1.40 / aq=1:1.00
Language                         : English

Audio
ID                               : 2
Format                           : AC-3
Format/Info                      : Audio Coding 3
Mode extension                   : CM (complete main)
Codec ID                         : A_AC3
Duration                         : 54mn 18s
Bit rate mode                    : Constant
Bit rate                         : 384 Kbps
Channel(s)                       : 6 channels
Channel positions                : Front: L C R, Side: L R, LFE
Sampling rate                    : 48.0 KHz
Bit depth                        : 16 bits
Compression mode                 : Lossy
Stream size                      : 149 MiB (10%)

~~~~~~~~~~~~~~~
Hornigold TBS
~~~~~~~~~~~~~~~